# xmcd
#
# Track frame offsets: 
#        150
#        15602
#        39563
#        54457
#        70352
#        84130
#        101127
#        126916
#        143305
#        165231
#        182292
#        202455
#
# Disc length: 2986 seconds
#
# Revision: 0
# Processed by: cddbd v1.5.2PL0 Copyright (c) Steve Scherf et al.
# Submitted via: ExactAudioCopy v0.99pb3
#
DISCID=990ba80c
DTITLE=Roger Dean Young and the tin cup. - Down Easy
DYEAR=2010
DGENRE=Urban Roots.
TTITLE0=Down Easy.
TTITLE1=Emmylou.
TTITLE2=Memorabilia.
TTITLE3=Winter Song.
TTITLE4=Sisters.
TTITLE5=Wayfarer's Star.
TTITLE6=Gilead.
TTITLE7=Fuselage.
TTITLE8=Victoria.
TTITLE9=Thanksgiving Den.
TTITLE10=Tired Horses.
TTITLE11=Fade Away.
EXTD=
EXTT0=
EXTT1=
EXTT2=
EXTT3=
EXTT4=
EXTT5=
EXTT6=
EXTT7=
EXTT8=
EXTT9=
EXTT10=
EXTT11=
PLAYORDER=
